name E:\Dropbox\SEL\BOX\Experiment\240124_SUB1_PJH\c3d\XYZ\UpDown_TrcMot\15_10_trial1_D1_ExtLoadAPP3.mot
datacolumns 37
datarows 6
range 8.617 8.622
endheader

time	    ground_force1_vx	    ground_force1_vy	    ground_force1_vz	    ground_force1_px	    ground_force1_py	    ground_force1_pz	    ground_torque1_x	    ground_torque1_y	    ground_torque1_z	    ground_force2_vx	    ground_force2_vy	    ground_force2_vz	    ground_force2_px	    ground_force2_py	    ground_force2_pz	    ground_torque2_x	    ground_torque2_y	    ground_torque2_z	      hand_force3_vx	      hand_force3_vy	      hand_force3_vz	      hand_force3_px	      hand_force3_py	      hand_force3_pz	      hand_torque3_x	      hand_torque3_y	      hand_torque3_z	      hand_force4_vx	      hand_force4_vy	      hand_force4_vz	      hand_force4_px	      hand_force4_py	      hand_force4_pz	      hand_torque4_x	      hand_torque4_y	      hand_torque4_z	
8.617	         34.29464264	        400.12481435	          8.89619081	          0.22042201	          0.00000000	          0.19829325	          0.00000000	         -2.92439897	          0.00000000	        -39.56672651	        448.19544791	         10.55443852	          0.58240765	          0.00000000	          0.19044587	          0.00000000	          2.17638182	          0.00000000	          0.00000000	          0.00000000	          0.00000000	          0.14434694	          1.00926182	         -0.17735647	          0.00000000	          0.00000000	          0.00000000	          0.00000000	          0.00000000	          0.00000000	          0.65882446	          1.03448077	         -0.18211451	          0.00000000	          0.00000000	          0.00000000	
8.618	         34.29897306	        399.86832240	          8.88818881	          0.22041176	          0.00000000	          0.19843019	          0.00000000	         -2.93724754	          0.00000000	        -39.52299918	        447.31693728	         10.56785731	          0.58244598	          0.00000000	          0.19041284	          0.00000000	          2.18512413	          0.00000000	          0.00000000	          0.00000000	          0.00000000	          0.14435766	          1.00925550	         -0.17643864	          0.00000000	          0.00000000	          0.00000000	          0.00000000	          0.00000000	          0.00000000	          0.65884243	          1.03448157	         -0.18126703	          0.00000000	          0.00000000	          0.00000000	
8.619	         34.30852861	        399.62731561	          8.88262037	          0.22040153	          0.00000000	          0.19856868	          0.00000000	         -2.94945265	          0.00000000	        -39.47834555	        446.44799434	         10.57732702	          0.58248388	          0.00000000	          0.19038281	          0.00000000	          2.19404723	          0.00000000	          0.00000000	          0.00000000	          0.00000000	          0.14436864	          1.00924631	         -0.17552280	          0.00000000	          0.00000000	          0.00000000	          0.00000000	          0.00000000	          0.00000000	          0.65886024	          1.03447986	         -0.18042097	          0.00000000	          0.00000000	          0.00000000	
8.62	         34.32335405	        399.40271079	          8.87977579	          0.22039135	          0.00000000	          0.19870869	          0.00000000	         -2.96102441	          0.00000000	        -39.43293013	        445.58962473	         10.58303704	          0.58252133	          0.00000000	          0.19035578	          0.00000000	          2.20314202	          0.00000000	          0.00000000	          0.00000000	          0.00000000	          0.14437987	          1.00923422	         -0.17460895	          0.00000000	          0.00000000	          0.00000000	          0.00000000	          0.00000000	          0.00000000	          0.65887789	          1.03447566	         -0.17957633	          0.00000000	          0.00000000	          0.00000000	
8.621	         34.34347533	        399.19535395	          8.87993375	          0.22038123	          0.00000000	          0.19885019	          0.00000000	         -2.97197427	          0.00000000	        -39.38691474	        444.74278227	         10.58518526	          0.58255830	          0.00000000	          0.19033175	          0.00000000	          2.21239894	          0.00000000	          0.00000000	          0.00000000	          0.00000000	          0.14439136	          1.00921919	         -0.17369712	          0.00000000	          0.00000000	          0.00000000	          0.00000000	          0.00000000	          0.00000000	          0.65889537	          1.03446896	         -0.17873313	          0.00000000	          0.00000000	          0.00000000	
8.622	         34.36889973	        399.00601795	          8.88336037	          0.22037119	          0.00000000	          0.19899315	          0.00000000	         -2.98231498	          0.00000000	        -39.34045791	        443.90836644	         10.58397745	          0.58259475	          0.00000000	          0.19031069	          0.00000000	          2.22180789	          0.00000000	          0.00000000	          0.00000000	          0.00000000	          0.14440311	          1.00920122	         -0.17278729	          0.00000000	          0.00000000	          0.00000000	          0.00000000	          0.00000000	          0.00000000	          0.65891267	          1.03445977	         -0.17789138	          0.00000000	          0.00000000	          0.00000000	
